Coordinates
version=1
nRows=49
nColumns=12
inDegrees=yes

Units are S.I. units (second, meters, Newtons, ...)
Angles are in degrees

endheader
time	SC_y	SC_z	SC_x	AC_y	AC_z	AC_x	GH_y	GH_z	GH_yy	EL_x	PS_y
       0.0              -52.46          15.99          78.26          32.07         -1.179          15.84          116.0          11.98          16.05          87.93          23.66
   0.01233              -52.45          15.99          78.25          32.07          -1.18          15.84          116.0          11.99          16.02          87.92          23.67
   0.02467              -52.45           16.0          78.24          32.08          -1.18          15.84          116.0           12.0           16.0          87.91          23.68
     0.037              -52.44           16.0          78.23          32.08         -1.181          15.84          116.0          12.01          15.97           87.9           23.7
   0.04933              -52.43           16.0          78.22          32.09         -1.182          15.84          116.0          12.02          15.93          87.89          23.71
   0.06167              -52.43           16.0          78.21           32.1         -1.183          15.84          116.0          12.03           15.9          87.88          23.72
     0.074              -52.42           16.0           78.2           32.1         -1.184          15.85          116.0          12.04          15.86          87.87          23.74
   0.08633              -52.42           16.0          78.18          32.11         -1.185          15.85          116.1          12.05          15.83          87.86          23.75
   0.09867              -52.41          16.01          78.17          32.12         -1.186          15.85          116.1          12.06          15.78          87.85          23.77
     0.111               -52.4          16.01          78.15          32.13         -1.187          15.85          116.1          12.07          15.74          87.84          23.79
    0.1233              -52.39          16.01          78.14          32.14         -1.188          15.85          116.1          12.08          15.69          87.83          23.81
    0.1357              -52.38          16.02          78.12          32.15          -1.19          15.85          116.1           12.1          15.64          87.81          23.83
     0.148              -52.37          16.02           78.1          32.16         -1.191          15.85          116.1          12.11          15.58           87.8          23.85
    0.1603              -52.36          16.02          78.08          32.17         -1.193          15.85          116.1          12.13          15.52          87.78          23.88
    0.1727              -52.35          16.02          78.06          32.18         -1.194          15.85          116.1          12.15          15.46          87.76           23.9
     0.185              -52.34          16.03          78.03           32.2         -1.196          15.85          116.1          12.17          15.39          87.74          23.93
    0.1973              -52.33          16.03          78.01          32.21         -1.198          15.85          116.1          12.19          15.31          87.72          23.96
    0.2097              -52.31          16.04          77.98          32.23           -1.2          15.85          116.2          12.21          15.23           87.7           24.0
     0.222              -52.29          16.04          77.95          32.25         -1.203          15.85          116.2          12.24          15.14          87.67          24.04
    0.2343              -52.28          16.05          77.92          32.27         -1.205          15.85          116.2          12.26          15.04          87.64          24.08
    0.2467              -52.26          16.05          77.88          32.29         -1.208          15.86          116.2          12.29          14.93          87.61          24.12
     0.259              -52.24          16.06          77.84          32.31         -1.211          15.86          116.2          12.33          14.81          87.58          24.17
    0.2713              -52.21          16.07          77.79          32.34         -1.215          15.86          116.3          12.36          14.67          87.54          24.22
    0.2837              -52.19          16.08          77.74          32.37         -1.219          15.86          116.3           12.4          14.52           87.5          24.29
     0.296              -52.16          16.08          77.69           32.4         -1.223          15.86          116.3          12.45          14.36          87.45          24.35
    0.3083              -52.13          16.09          77.63          32.43         -1.228          15.86          116.3           12.5          14.18           87.4          24.43
    0.3207              -52.09           16.1          77.56          32.47         -1.233          15.87          116.4          12.56          13.97          87.35          24.51
     0.333              -52.05          16.12          77.48          32.52         -1.239          15.87          116.4          12.62          13.74          87.28          24.61
    0.3453               -52.0          16.13          77.39          32.57         -1.246          15.87          116.5          12.69          13.48          87.21          24.71
    0.3577              -51.95          16.15          77.29          32.63         -1.254          15.87          116.5          12.77          13.18          87.13          24.83
      0.37              -51.89          16.17          77.17          32.69         -1.263          15.88          116.6          12.87          12.84          87.03          24.97
    0.3823              -51.82          16.19          77.04          32.77         -1.273          15.88          116.7          12.97          12.46          86.92          25.13
    0.3947              -51.74          16.21          76.89          32.86         -1.285          15.89          116.7           13.1          12.01           86.8          25.31
     0.407              -51.65          16.24          76.72          32.96         -1.298          15.89          116.8          13.24          11.49          86.65          25.53
    0.4193              -51.55          16.27          76.51          33.08         -1.314           15.9          116.9          13.41          10.88          86.48          25.78
    0.4317              -51.42          16.31          76.27          33.22         -1.333          15.91          117.1          13.61          10.16          86.28          26.07
     0.444              -51.27          16.36          75.98          33.39         -1.356          15.92          117.2          13.84          9.305          86.05          26.42
    0.4563              -51.09          16.41          75.63          33.59         -1.382          15.93          117.4          14.13          8.281          85.76          26.84
    0.4687              -50.87          16.48          75.21          33.83         -1.415          15.94          117.6          14.47          7.043          85.42          27.34
     0.481              -50.61          16.56           74.7          34.13         -1.454          15.96          117.9          14.88          5.531          84.99          27.96
    0.4933              -50.28          16.66          74.07          34.49         -1.503          15.98          118.2           15.4          3.664          84.47          28.72
    0.5057              -49.87          16.78          73.28          34.95         -1.564          16.01          118.6          16.04          1.336          83.82          29.67
     0.518              -49.35          16.94          72.29          35.52         -1.641          16.04          119.1          16.85         -1.597          83.01          30.87
    0.5303               -48.7          17.14          71.03          36.25         -1.739          16.08          119.8          17.87         -5.325          81.97           32.4
    0.5427              -47.86           17.4          69.42          37.19         -1.864          16.13          120.6          19.19          -10.1          80.64          34.35
     0.555              -46.78          17.73          67.35          38.39         -2.024           16.2          121.7          20.88         -16.22          78.93          36.85
    0.5673              -45.41          18.15           64.7          39.92         -2.229          16.28          123.1          23.03         -24.04          76.75          40.04
    0.5797              -43.68          18.68          61.38          41.84         -2.486          16.39          124.9          25.74         -33.88          74.01          44.06
     0.592              -41.57          19.33          57.32          44.19           -2.8          16.52          127.0          29.04         -45.86          70.67          48.96
